<svg xmlns="http://www.w3.org/2000/svg" width="42" height="42" fill="none" viewBox="0 0 42 42"><g clip-path="url(#a)"><path fill="#776AEB" d="M38.5 23.625V36.75a1.75 1.75 0 0 1-1.75 1.75H35a1.75 1.75 0 0 1-1.75-1.75V35H8.75v1.75A1.75 1.75 0 0 1 7 38.5H5.25a1.75 1.75 0 0 1-1.75-1.75V23.625l-2.175-.543A1.75 1.75 0 0 1 0 21.386v-1.26a.875.875 0 0 1 .875-.875h3.281l3.742-9.979A3.5 3.5 0 0 1 11.175 7h19.65a3.5 3.5 0 0 1 3.277 2.271l3.742 9.979h3.281a.875.875 0 0 1 .875.875v1.26a1.75 1.75 0 0 1-1.325 1.697l-2.175.543ZM7 26.25v3.5a1.75 1.75 0 0 0 1.75 1.75h5.679a.874.874 0 0 0 .77-1.288C13.79 27.57 11.056 26.25 7 26.25Zm28 0c-4.055 0-6.788 1.321-8.2 3.962a.874.874 0 0 0 .771 1.288h5.679A1.75 1.75 0 0 0 35 29.75v-3.5ZM10.5 10.5l-2.732 8.197A1.75 1.75 0 0 0 9.428 21h23.145a1.75 1.75 0 0 0 1.659-2.303L31.5 10.5h-21Z"/></g><defs><clipPath id="a"><path fill="#fff" d="M0 0h42v42H0z"/></clipPath></defs></svg>