<svg width="38" height="38" viewBox="0 0 38 38" fill="none" xmlns="http://www.w3.org/2000/svg">
<mask id="mask0_15304_4176" style="mask-type:luminance" maskUnits="userSpaceOnUse" x="8" y="11" width="21" height="13">
<path d="M8.79785 11.434H28.7979V23.434H8.79785V11.434Z" fill="white"/>
<path d="M13.3537 22.6229C12.2027 22.6229 11.2837 22.2629 10.6007 21.5429C9.91768 20.8239 9.57568 19.9059 9.57568 18.7909C9.57568 17.7829 9.78668 16.8249 10.2097 15.9169C10.621 15.0223 11.2582 14.2503 12.0587 13.6769C12.8533 13.0971 13.814 12.7895 14.7977 12.7999C15.9577 12.7999 16.8797 13.1599 17.5637 13.8799C18.2477 14.5989 18.5897 15.5159 18.5897 16.6319C18.5936 17.6297 18.3767 18.6159 17.9547 19.5199C17.5385 20.4114 16.8966 21.1788 16.0927 21.7459C15.2978 22.326 14.3367 22.6336 13.3527 22.6229H13.3537ZM13.5837 20.3159C14.2577 20.3159 14.8157 19.9379 15.2567 19.1819C15.7067 18.4269 15.9307 17.6259 15.9307 16.7799C15.9307 16.2399 15.8047 15.8309 15.5527 15.5519C15.3097 15.2649 14.9827 15.1209 14.5677 15.1209C13.8937 15.1209 13.3357 15.4979 12.8947 16.2539C12.462 16.9804 12.2336 17.8103 12.2337 18.6559C12.2337 19.1959 12.3547 19.6099 12.5977 19.8969C12.8407 20.1769 13.1697 20.3159 13.5837 20.3159ZM18.7897 22.4339L19.3427 20.4099L24.1457 17.2799C24.8757 16.8119 25.2387 16.3439 25.2387 15.8759C25.2387 15.6329 25.1587 15.4449 24.9967 15.3099C24.8437 15.1749 24.6187 15.1069 24.3217 15.1069C23.6917 15.1069 22.9767 15.4989 22.1757 16.2809L20.6517 14.6749C21.7667 13.4519 23.0717 12.8399 24.5647 12.8399C25.5807 12.8399 26.3857 13.0919 26.9797 13.5959C27.5827 14.0909 27.8837 14.7379 27.8837 15.5389C27.8837 16.1329 27.6997 16.6809 27.3307 17.1849C26.9617 17.6889 26.3187 18.2379 25.4007 18.8309L23.0937 20.3019H26.8587L26.2787 22.4339H18.7887H18.7897Z" fill="black"/>
</mask>
<g mask="url(#mask0_15304_4176)">
<path d="M10.6008 21.5439L10.2648 21.8629L10.6008 21.5429V21.5439ZM17.9548 19.5189L18.3748 19.7169V19.7149L17.9548 19.5199V19.5189ZM16.0929 21.7459L15.8228 21.3689L15.8218 21.3709L16.0929 21.7459ZM15.2568 19.1819L14.8578 18.9449L14.8558 18.9489L15.2558 19.1819H15.2568ZM15.5529 15.5519L15.1989 15.8519L15.2039 15.8569L15.2098 15.8629L15.5529 15.5529V15.5519ZM12.5978 19.8969L12.2438 20.1969L12.2488 20.2019L12.5988 19.8969H12.5978ZM13.3538 22.1599C12.3068 22.1599 11.5188 21.8369 10.9368 21.2239L10.2648 21.8629C11.0508 22.6889 12.0978 23.0859 13.3538 23.0859V22.1599ZM10.9368 21.2239C10.3458 20.6019 10.0388 19.8039 10.0388 18.7909H9.11185C9.11185 20.0089 9.48985 21.0459 10.2648 21.8629L10.9368 21.2239ZM10.0388 18.7909C10.0388 17.8509 10.2358 16.9589 10.6288 16.1119L9.78885 15.7219C9.33979 16.6826 9.10861 17.7305 9.11185 18.7909H10.0388ZM10.6288 16.1119C11.0067 15.2891 11.5927 14.5791 12.3289 14.0519L11.7868 13.3019C10.9226 13.9218 10.2344 14.7557 9.78985 15.7219L10.6298 16.1119H10.6288ZM12.3289 14.0519C13.0449 13.5289 13.9112 13.2521 14.7979 13.2629V12.3359C13.6859 12.3359 12.6778 12.6579 11.7878 13.3009L12.3289 14.0519ZM14.7979 13.2629C15.8549 13.2629 16.6468 13.5859 17.2278 14.1979L17.8998 13.5599C17.1138 12.7329 16.0619 12.3359 14.7979 12.3359V13.2629ZM17.2278 14.1979C17.8198 14.8209 18.1258 15.6189 18.1258 16.6319H19.0528C19.0528 15.4139 18.6758 14.3769 17.8998 13.5599L17.2278 14.1979ZM18.1258 16.6319C18.1299 17.5618 17.9285 18.481 17.5358 19.3239L18.3748 19.7149C18.8258 18.7449 19.0528 17.7149 19.0528 16.6319H18.1258ZM17.5358 19.3219C17.1536 20.142 16.5633 20.8477 15.8239 21.3689L16.3618 22.1229C17.2307 21.5097 17.9246 20.6804 18.3748 19.7169L17.5358 19.3239V19.3219ZM15.8218 21.3709C15.1059 21.8934 14.2401 22.1701 13.3538 22.1599V23.0859C14.4347 23.0964 15.4902 22.7583 16.3639 22.1219L15.8218 21.3709ZM13.5828 20.7789C14.4728 20.7789 15.1608 20.2649 15.6568 19.4159L14.8569 18.9489C14.4699 19.6109 14.0438 19.8519 13.5828 19.8519V20.7789ZM15.6548 19.4189C16.1382 18.6235 16.3941 17.7107 16.3949 16.7799H15.4679C15.4679 17.5399 15.2678 18.2579 14.8578 18.9449L15.6548 19.4189ZM16.3949 16.7799C16.3949 16.1749 16.2539 15.6369 15.8969 15.2419L15.2098 15.8629C15.3568 16.0259 15.4679 16.3059 15.4679 16.7799H16.3949ZM15.9078 15.2539C15.5678 14.8499 15.1038 14.6569 14.5678 14.6569V15.5839C14.8608 15.5839 15.0539 15.6789 15.1989 15.8509L15.9078 15.2539ZM14.5678 14.6569C13.6798 14.6569 12.9908 15.1709 12.4948 16.0209L13.2948 16.4869C13.6808 15.8259 14.1078 15.5839 14.5678 15.5839V14.6569ZM12.4948 16.0209C12.0209 16.8182 11.7708 17.7285 11.7708 18.6559H12.6968C12.6968 17.8959 12.8938 17.1749 13.2948 16.4879L12.4948 16.0209ZM11.7708 18.6559C11.7708 19.2589 11.9058 19.7949 12.2438 20.1959L12.9518 19.5989C12.8048 19.4239 12.6968 19.1329 12.6968 18.6559H11.7708ZM12.2488 20.2019C12.5908 20.5939 13.0529 20.7789 13.5828 20.7789V19.8519C13.2858 19.8519 13.0908 19.7579 12.9478 19.5929L12.2488 20.2019ZM18.7888 22.4339L18.3428 22.3119L18.1828 22.8969H18.7899V22.4339H18.7888ZM19.3428 20.4099L19.0898 20.0219L18.9418 20.1179L18.8958 20.2879L19.3428 20.4099ZM24.1458 17.2799L23.8958 16.8899L23.8928 16.8919L24.1458 17.2799ZM24.9958 15.3099L24.6898 15.6569L24.6999 15.6649L24.9958 15.3099ZM22.1758 16.2809L21.8398 16.6009L22.1638 16.9409L22.4998 16.6119L22.1758 16.2809ZM20.6518 14.6749L20.3088 14.3629L20.0188 14.6819L20.3158 14.9939L20.6518 14.6749ZM26.9798 13.5949L26.6798 13.9489L26.6859 13.9539L26.9798 13.5949ZM25.4008 18.8309L25.6508 19.2219L25.6528 19.2199L25.4008 18.8309ZM23.0938 20.3019L22.8438 19.9119L21.5048 20.7659H23.0938V20.3019ZM26.8588 20.3019L27.3058 20.4239L27.4648 19.8389H26.8588V20.3019ZM26.2788 22.4339V22.8969H26.6328L26.7258 22.5559L26.2788 22.4339ZM19.2358 22.5559L19.7899 20.5319L18.8958 20.2879L18.3428 22.3119L19.2358 22.5559ZM19.5958 20.7979L24.3988 17.6679L23.8928 16.8919L19.0898 20.0219L19.5958 20.7979ZM24.3958 17.6699C25.1488 17.1869 25.7028 16.5979 25.7028 15.8759H24.7758C24.7758 16.0899 24.6018 16.4359 23.8958 16.8899L24.3958 17.6699ZM25.7028 15.8759C25.7028 15.5189 25.5768 15.1909 25.2928 14.9539L24.6999 15.6649C24.7399 15.6979 24.7758 15.7479 24.7758 15.8759H25.7028ZM25.3028 14.9619C25.0338 14.7249 24.6808 14.6439 24.3218 14.6439V15.5699C24.5558 15.5699 24.6528 15.6239 24.6898 15.6569L25.3028 14.9619ZM24.3218 14.6439C23.5058 14.6439 22.6778 15.1429 21.8518 15.9499L22.4998 16.6119C23.2758 15.8539 23.8778 15.5699 24.3218 15.5699V14.6439ZM22.5118 15.9619L20.9879 14.3559L20.3158 14.9939L21.8398 16.6009L22.5118 15.9619ZM20.9938 14.9879C22.0318 13.8479 23.2168 13.3039 24.5638 13.3039V12.3769C22.9258 12.3769 21.5018 13.0549 20.3088 14.3629L20.9938 14.9879ZM24.5638 13.3039C25.5058 13.3039 26.1938 13.5359 26.6798 13.9489L27.2799 13.2429C26.5799 12.6479 25.6568 12.3769 24.5648 12.3769V13.3029L24.5638 13.3039ZM26.6859 13.9539C27.1779 14.3579 27.4208 14.8729 27.4208 15.5389H28.3478C28.3478 14.6039 27.9878 13.8229 27.2738 13.2379L26.6859 13.9539ZM27.4208 15.5389C27.4208 16.0289 27.2709 16.4829 26.9569 16.9119L27.7048 17.4589C28.1219 16.9057 28.3476 16.2318 28.3478 15.5389H27.4208ZM26.9569 16.9119C26.6369 17.3479 26.0498 17.8599 25.1498 18.4419L25.6528 19.2199C26.5878 18.6149 27.2868 18.0299 27.7048 17.4589L26.9569 16.9119ZM25.1518 18.4409L22.8448 19.9109L23.3428 20.6929L25.6498 19.2229L25.1518 18.4409ZM23.0938 20.7659H26.8588V19.8389H23.0938V20.7659ZM26.4118 20.1809L25.8319 22.3119L26.7258 22.5559L27.3058 20.4239L26.4118 20.1809ZM26.2788 21.9709H18.7888V22.8979H26.2788V21.9709Z" fill="#D4D4D4"/>
</g>
<path d="M6 3.33978C6 2.18524 7.12705 1.36709 8.2248 1.72475L18.2133 4.97914C18.5552 5.09055 18.9237 5.09055 19.2657 4.97914L29.2541 1.72475C30.3519 1.36709 31.4789 2.18524 31.4789 3.33979V25.0761C31.4789 25.5987 31.2384 26.0922 30.8267 26.4142L19.7858 35.0476C19.1711 35.5283 18.3079 35.5283 17.6932 35.0476L6.65228 26.4142C6.24058 26.0922 6 25.5987 6 25.0761V3.33978Z" fill="#263954"/>
<path d="M7.69971 6.11627C7.69971 4.94749 8.85269 4.12791 9.95656 4.51203L18.1823 7.37448C18.5439 7.50029 18.9373 7.50029 19.2988 7.37448L27.5246 4.51203C28.6285 4.12791 29.7815 4.94749 29.7815 6.11627V25.9846C29.7815 26.4881 29.5581 26.9656 29.1717 27.2883L19.8294 35.0907C19.199 35.6172 18.2822 35.6172 17.6518 35.0907L8.30948 27.2883C7.92305 26.9656 7.69971 26.4881 7.69971 25.9846V6.11627Z" fill="url(#paint0_linear_15304_4176)"/>
<path d="M7.69824 6.11654C7.69824 4.94781 8.85127 4.12806 9.95508 4.51205L18.1807 7.37435C18.3617 7.43736 18.5512 7.4682 18.7402 7.4681V35.4847C18.3531 35.4849 17.9658 35.3536 17.6504 35.0902L8.30859 27.2884C7.92223 26.9657 7.69831 26.4881 7.69824 25.9847V6.11654Z" fill="url(#paint1_linear_15304_4176)"/>
<mask id="path-7-outside-1_15304_4176" maskUnits="userSpaceOnUse" x="8.57471" y="11.4298" width="21" height="12" fill="black">
<rect fill="white" x="8.57471" y="11.4298" width="21" height="12"/>
<path d="M13.1682 22.6187C12.0172 22.6187 11.0999 22.259 10.4165 21.5395C9.73305 20.8201 9.39133 19.9029 9.39133 18.7878C9.39133 17.7807 9.60265 16.8229 10.0253 15.9147C10.448 15.0064 11.0639 14.2601 11.8733 13.6755C12.6826 13.091 13.5954 12.7988 14.6115 12.7988C15.7716 12.7988 16.6933 13.1585 17.3767 13.8779C18.0602 14.5973 18.4019 15.5145 18.4019 16.6296C18.4019 17.6458 18.1906 18.608 17.7679 19.5162C17.3453 20.4155 16.7248 21.1574 15.9064 21.7419C15.0971 22.3264 14.1844 22.6187 13.1682 22.6187ZM13.3975 20.3121C14.072 20.3121 14.6295 19.9344 15.0701 19.179C15.5198 18.4236 15.7446 17.6233 15.7446 16.778C15.7446 16.2384 15.6187 15.8293 15.3669 15.5505C15.1241 15.2627 14.7959 15.1188 14.3822 15.1188C13.7078 15.1188 13.1502 15.4965 12.7096 16.2519C12.269 17.0073 12.0486 17.8076 12.0486 18.6529C12.0486 19.1925 12.17 19.6061 12.4128 19.8939C12.6556 20.1727 12.9839 20.3121 13.3975 20.3121ZM18.7822 22.4298L24.4745 15.1863H20.212L20.8055 12.9876H28.0895L27.55 14.957L21.7767 22.4298H18.7822Z"/>
</mask>
<path d="M13.1682 22.6187C12.0172 22.6187 11.0999 22.259 10.4165 21.5395C9.73305 20.8201 9.39133 19.9029 9.39133 18.7878C9.39133 17.7807 9.60265 16.8229 10.0253 15.9147C10.448 15.0064 11.0639 14.2601 11.8733 13.6755C12.6826 13.091 13.5954 12.7988 14.6115 12.7988C15.7716 12.7988 16.6933 13.1585 17.3767 13.8779C18.0602 14.5973 18.4019 15.5145 18.4019 16.6296C18.4019 17.6458 18.1906 18.608 17.7679 19.5162C17.3453 20.4155 16.7248 21.1574 15.9064 21.7419C15.0971 22.3264 14.1844 22.6187 13.1682 22.6187ZM13.3975 20.3121C14.072 20.3121 14.6295 19.9344 15.0701 19.179C15.5198 18.4236 15.7446 17.6233 15.7446 16.778C15.7446 16.2384 15.6187 15.8293 15.3669 15.5505C15.1241 15.2627 14.7959 15.1188 14.3822 15.1188C13.7078 15.1188 13.1502 15.4965 12.7096 16.2519C12.269 17.0073 12.0486 17.8076 12.0486 18.6529C12.0486 19.1925 12.17 19.6061 12.4128 19.8939C12.6556 20.1727 12.9839 20.3121 13.3975 20.3121ZM18.7822 22.4298L24.4745 15.1863H20.212L20.8055 12.9876H28.0895L27.55 14.957L21.7767 22.4298H18.7822Z" fill="url(#paint2_linear_15304_4176)"/>
<path d="M10.4165 21.5395L10.0807 21.8585V21.8585L10.4165 21.5395ZM10.0253 15.9147L10.4452 16.1101V16.1101L10.0253 15.9147ZM11.8733 13.6755L12.1444 14.051H12.1444L11.8733 13.6755ZM17.3767 13.8779L17.041 14.1968H17.041L17.3767 13.8779ZM17.7679 19.5162L18.187 19.7132L18.1878 19.7116L17.7679 19.5162ZM15.9064 21.7419L15.6373 21.365L15.6353 21.3664L15.9064 21.7419ZM15.0701 19.179L14.6722 18.9421L14.6701 18.9456L15.0701 19.179ZM15.3669 15.5505L15.0129 15.8491L15.018 15.8551L15.0232 15.8609L15.3669 15.5505ZM12.7096 16.2519L12.3096 16.0186V16.0186L12.7096 16.2519ZM12.4128 19.8939L12.0588 20.1926L12.0636 20.1981L12.4128 19.8939ZM13.1682 22.6187V22.1555C12.122 22.1555 11.3341 21.833 10.7522 21.2206L10.4165 21.5395L10.0807 21.8585C10.8658 22.6849 11.9124 23.0818 13.1682 23.0818V22.6187ZM10.4165 21.5395L10.7522 21.2206C10.1609 20.5981 9.85444 19.8001 9.85444 18.7878H9.39133H8.92822C8.92822 20.0057 9.30519 21.0422 10.0807 21.8585L10.4165 21.5395ZM9.39133 18.7878H9.85444C9.85444 17.8478 10.0512 16.9568 10.4452 16.1101L10.0253 15.9147L9.60543 15.7193C9.15414 16.6891 8.92822 17.7135 8.92822 18.7878H9.39133ZM10.0253 15.9147L10.4452 16.1101C10.8346 15.2733 11.3995 14.589 12.1444 14.051L11.8733 13.6755L11.6021 13.3001C10.7284 13.9311 10.0613 14.7396 9.60543 15.7193L10.0253 15.9147ZM11.8733 13.6755L12.1444 14.051C12.8733 13.5245 13.6908 13.2619 14.6115 13.2619V12.7988V12.3357C13.4999 12.3357 12.4919 12.6575 11.6021 13.3001L11.8733 13.6755ZM14.6115 12.7988V13.2619C15.668 13.2619 16.4598 13.5851 17.041 14.1968L17.3767 13.8779L17.7125 13.5589C16.9267 12.7318 15.8752 12.3357 14.6115 12.3357V12.7988ZM17.3767 13.8779L17.041 14.1968C17.6323 14.8193 17.9388 15.6173 17.9388 16.6296H18.4019H18.865C18.865 15.4117 18.488 14.3753 17.7125 13.5589L17.3767 13.8779ZM18.4019 16.6296H17.9388C17.9388 17.5793 17.7418 18.4747 17.348 19.3208L17.7679 19.5162L18.1878 19.7116C18.6393 18.7413 18.865 17.7123 18.865 16.6296H18.4019ZM17.7679 19.5162L17.3488 19.3192C16.9603 20.1458 16.3918 20.826 15.6373 21.365L15.9064 21.7419L16.1756 22.1187C17.0577 21.4887 17.7302 20.6852 18.187 19.7132L17.7679 19.5162ZM15.9064 21.7419L15.6353 21.3664C14.9064 21.8929 14.0889 22.1555 13.1682 22.1555V22.6187V23.0818C14.2799 23.0818 15.2878 22.7599 16.1776 22.1173L15.9064 21.7419ZM13.3975 20.3121V20.7752C14.286 20.7752 14.9748 20.2616 15.4702 19.4123L15.0701 19.179L14.6701 18.9456C14.2842 19.6072 13.858 19.8489 13.3975 19.8489V20.3121ZM15.0701 19.179L15.4681 19.4159C15.9586 18.5918 16.2077 17.7101 16.2077 16.778H15.7446H15.2815C15.2815 17.5365 15.081 18.2554 14.6722 18.9421L15.0701 19.179ZM15.7446 16.778H16.2077C16.2077 16.1733 16.067 15.6347 15.7106 15.2401L15.3669 15.5505L15.0232 15.8609C15.1704 16.0238 15.2815 16.3036 15.2815 16.778H15.7446ZM15.3669 15.5505L15.7208 15.2518C15.3807 14.8487 14.9171 14.6557 14.3822 14.6557V15.1188V15.582C14.6746 15.582 14.8675 15.6768 15.0129 15.8491L15.3669 15.5505ZM14.3822 15.1188V14.6557C13.4938 14.6557 12.8049 15.1694 12.3096 16.0186L12.7096 16.2519L13.1096 16.4853C13.4955 15.8237 13.9218 15.582 14.3822 15.582V15.1188ZM12.7096 16.2519L12.3096 16.0186C11.8291 16.8422 11.5855 17.7227 11.5855 18.6529H12.0486H12.5117C12.5117 17.8925 12.7088 17.1724 13.1096 16.4853L12.7096 16.2519ZM12.0486 18.6529H11.5855C11.5855 19.2553 11.7205 19.7915 12.0589 20.1926L12.4128 19.8939L12.7668 19.5953C12.6196 19.4208 12.5117 19.1296 12.5117 18.6529H12.0486ZM12.4128 19.8939L12.0636 20.1981C12.4054 20.5905 12.8678 20.7752 13.3975 20.7752V20.3121V19.8489C13.1 19.8489 12.9058 19.7548 12.7621 19.5897L12.4128 19.8939ZM18.7822 22.4298L18.4181 22.1437L17.8293 22.8929H18.7822V22.4298ZM24.4745 15.1863L24.8386 15.4724L25.4274 14.7232H24.4745V15.1863ZM20.212 15.1863L19.7649 15.0656L19.6073 15.6494H20.212V15.1863ZM20.8055 12.9876V12.5245H20.4509L20.3584 12.8669L20.8055 12.9876ZM28.0895 12.9876L28.5362 13.11L28.6966 12.5245H28.0895V12.9876ZM27.55 14.957L27.9164 15.2401L27.9724 15.1677L27.9966 15.0794L27.55 14.957ZM21.7767 22.4298V22.8929H22.0042L22.1432 22.7129L21.7767 22.4298ZM18.7822 22.4298L19.1463 22.716L24.8386 15.4724L24.4745 15.1863L24.1104 14.9001L18.4181 22.1437L18.7822 22.4298ZM24.4745 15.1863V14.7232H20.212V15.1863V15.6494H24.4745V15.1863ZM20.212 15.1863L20.6591 15.307L21.2526 13.1083L20.8055 12.9876L20.3584 12.8669L19.7649 15.0656L20.212 15.1863ZM20.8055 12.9876V13.4507H28.0895V12.9876V12.5245H20.8055V12.9876ZM28.0895 12.9876L27.6429 12.8652L27.1033 14.8346L27.55 14.957L27.9966 15.0794L28.5362 13.11L28.0895 12.9876ZM27.55 14.957L27.1835 14.6739L21.4103 22.1467L21.7767 22.4298L22.1432 22.7129L27.9164 15.2401L27.55 14.957ZM21.7767 22.4298V21.9667H18.7822V22.4298V22.8929H21.7767V22.4298Z" fill="#D4D4D4" mask="url(#path-7-outside-1_15304_4176)"/>
<defs>
<linearGradient id="paint0_linear_15304_4176" x1="18.7406" y1="3.72668" x2="18.7406" y2="36" gradientUnits="userSpaceOnUse">
<stop stop-color="#84B6FF"/>
<stop offset="1" stop-color="#537BB4"/>
</linearGradient>
<linearGradient id="paint1_linear_15304_4176" x1="18.7402" y1="3.72681" x2="18.7402" y2="35.9992" gradientUnits="userSpaceOnUse">
<stop stop-color="#5279B4"/>
<stop offset="1" stop-color="#486EA7"/>
</linearGradient>
<linearGradient id="paint2_linear_15304_4176" x1="17.9193" y1="12.4298" x2="17.9193" y2="25.7793" gradientUnits="userSpaceOnUse">
<stop offset="0.43941" stop-color="white"/>
<stop offset="0.809217" stop-color="#C9C9C9"/>
</linearGradient>
</defs>
</svg>
